# xmcd
#
# Track frame offsets:
#	150
#	16290
#	26893
#	45365
#	56931
#	65197
#	76041
#	106660
#	120554
#	132672
#	142571
#	151842
#	165665
#	176871
#	188926
#	194495
#	202432
#	209698
#	224465
#
# Disc length: 3173 seconds
#
# Revision: 0
# Processed by: cddbd v1.5.2PL0 Copyright (c) Steve Scherf et al.
# Submitted via: audiograbber 1.83.01
#
DISCID=200c6313
DTITLE=Bob Dylan and Johnny Cash - The Bootleg Series Vol. 15 1967-1969 Travelin'
DTITLE=Thru [CD 2)
DYEAR=2019
DGENRE=Folk/Rock
TTITLE0=I Still Miss Someone [The Bob Dylan - Johnny Cash sessions] [take 5]
TTITLE1=Don't Think Twice, It's All Right/Understand Your Man [The Bob Dylan - 
TTITLE1=Johnny Cash sessions] [Rehearsal]
TTITLE2=One Too Many Mornings [The Bob Dylan - Johnny Cash sessions] [take 3]
TTITLE3=Mountain Dew [The Bob Dylan - Johnny Cash sessions] [take 1]
TTITLE4=Mountain Dew [The Bob Dylan - Johnny Cash sessions] [take 2]
TTITLE5=I Still Miss Someone [The Bob Dylan - Johnny Cash sessions] [take 2]
TTITLE6=Careless Love [The Bob Dylan - Johnny Cash sessions] [take 1]
TTITLE7=Matchbox [The Bob Dylan - Johnny Cash sessions] [take 1]
TTITLE8=That's All Right, Mama [The Bob Dylan - Johnny Cash sessions] [take 1]
TTITLE9=Mystery Train/This Train Is Bound For Glory [The Bob Dylan - Johnny Cas
TTITLE9=h sessions] [take 1]
TTITLE10=Big River [The Bob Dylan - Johnny Cash sessions] [take 1]
TTITLE11=Girl From The North Country [The Bob Dylan - Johnny Cash sessions] [Re
TTITLE11=hearsal]
TTITLE12=Girl From The North Country [The Bob Dylan - Johnny Cash sessions] [ta
TTITLE12=ke 1]
TTITLE13=I Walk The Line [The Bob Dylan - Johnny Cash sessions] [take 2]
TTITLE14=Guess Things Happen That Way [The Bob Dylan - Johnny Cash sessions] [R
TTITLE14=ehearsal]
TTITLE15=Guess Things Happen That Way [The Bob Dylan - Johnny Cash sessions] [t
TTITLE15=ake 3]
TTITLE16=Five Feet High And Rising [The Bob Dylan - Johnny Cash sessions] [take
TTITLE16=1]
TTITLE17=You Are My Sunshine [The Bob Dylan - Johnny Cash sessions] [take 1]
TTITLE18=Ring Of Fire [The Bob Dylan - Johnny Cash sessions] [take 1]
EXTD=
EXTT0=
EXTT1=
EXTT2=
EXTT3=
EXTT4=
EXTT5=
EXTT6=
EXTT7=
EXTT8=
EXTT9=
EXTT10=
EXTT11=
EXTT12=
EXTT13=
EXTT14=
EXTT15=
EXTT16=
EXTT17=
EXTT18=
PLAYORDER=
